<svg xmlns="http://www.w3.org/2000/svg" viewBox="0 0 1280 720" role="img" aria-labelledby="title desc">
  <title id="title">YouTube Mood recommendation flow</title>
  <desc id="desc">Frontend FastAPI and YouTube Data API flow</desc>
  <rect width="1280" height="720" fill="#fefce8"/>
  <rect x="78" y="88" width="1124" height="544" rx="42" fill="#ffffff"/>
  <text x="116" y="154" font-family="Arial, sans-serif" font-size="34" font-weight="800" fill="#1f2937">Recommendation Flow</text>
  <g font-family="Arial, sans-serif" font-weight="800" text-anchor="middle">
    <rect x="128" y="258" width="212" height="134" rx="24" fill="#1f2937"/>
    <text x="234" y="316" font-size="22" fill="#f9fafb">React UI</text>
    <text x="234" y="348" font-size="16" fill="#d1d5db">mood input</text>
    <rect x="452" y="258" width="212" height="134" rx="24" fill="#0f766e"/>
    <text x="558" y="316" font-size="22" fill="#f0fdfa">FastAPI</text>
    <text x="558" y="348" font-size="16" fill="#99f6e4">AI + search</text>
    <rect x="776" y="258" width="212" height="134" rx="24" fill="#dc2626"/>
    <text x="882" y="316" font-size="22" fill="#fef2f2">YouTube</text>
    <text x="882" y="348" font-size="16" fill="#fecaca">Data API</text>
  </g>
  <path d="M360 325h68M684 325h68M882 418v40H234v-40" fill="none" stroke="#475569" stroke-width="12" stroke-linecap="round" stroke-linejoin="round"/>
  <path d="M428 325l-26-18v36zM752 325l-26-18v36zM234 418l18 26h-36z" fill="#475569"/>
  <rect x="206" y="514" width="868" height="64" rx="18" fill="#f1f5f9"/>
  <text x="640" y="554" text-anchor="middle" font-family="Arial, sans-serif" font-size="21" font-weight="700" fill="#334155">The UI shows recommendations only after AI output becomes API search parameters.</text>
</svg>
