<svg xmlns="http://www.w3.org/2000/svg" viewBox="0 0 1280 720" role="img" aria-labelledby="title desc">
  <title id="title">YouTube Mood infrastructure flow</title>
  <desc id="desc">Docker Kubernetes EKS and OpenSearch learning flow</desc>
  <rect width="1280" height="720" fill="#f0fdf4"/>
  <rect x="80" y="84" width="1120" height="552" rx="42" fill="#ffffff"/>
  <text x="118" y="152" font-family="Arial, sans-serif" font-size="34" font-weight="800" fill="#14532d">Infra Learning Map</text>
  <g font-family="Arial, sans-serif" font-weight="800" text-anchor="middle">
    <rect x="142" y="274" width="190" height="122" rx="22" fill="#334155"/>
    <text x="237" y="342" font-size="22" fill="#f8fafc">Docker</text>
    <rect x="424" y="274" width="190" height="122" rx="22" fill="#166534"/>
    <text x="519" y="342" font-size="22" fill="#dcfce7">K8s</text>
    <rect x="706" y="274" width="190" height="122" rx="22" fill="#0f766e"/>
    <text x="801" y="342" font-size="22" fill="#ccfbf1">EKS</text>
    <rect x="988" y="274" width="190" height="122" rx="22" fill="#b45309"/>
    <text x="1083" y="330" font-size="22" fill="#fffbeb">OpenSearch</text>
    <text x="1083" y="360" font-size="16" fill="#fde68a">draft</text>
  </g>
  <path d="M352 335h52M634 335h52M916 335h52" stroke="#64748b" stroke-width="12" stroke-linecap="round"/>
  <path d="M404 335l-24-17v34zM686 335l-24-17v34zM968 335l-24-17v34z" fill="#64748b"/>
  <text x="640" y="520" text-anchor="middle" font-family="Arial, sans-serif" font-size="22" font-weight="700" fill="#334155">Learning focus: document each deployment step before increasing infrastructure scope.</text>
</svg>
